HIERARCHY
ROOT Hips
{
	OFFSET 0.000000 88.474243 0.000000
	CHANNELS 6 Xposition Yposition Zposition Zrotation Yrotation Xrotation 
	JOINT Hips_Spine
	{
		OFFSET 0.000000 0.000000 0.000000
		CHANNELS 3 Zrotation Yrotation Xrotation
		JOINT Spine
		{
			OFFSET 0.005100 8.711998 -0.691000
			CHANNELS 3 Zrotation Yrotation Xrotation
			JOINT Spine1
			{
				OFFSET -0.009200 8.660301 -1.275000
				CHANNELS 3 Zrotation Yrotation Xrotation
				JOINT Spine2
				{
					OFFSET 0.006300 9.852501 -1.857000
					CHANNELS 3 Zrotation Yrotation Xrotation
					JOINT Spine2_Neck
					{
						OFFSET 0.000000 0.000000 0.000000
						CHANNELS 3 Zrotation Yrotation Xrotation
						JOINT Neck
						{
							OFFSET 0.016300 11.420799 -0.263300
							CHANNELS 3 Zrotation Yrotation Xrotation
							End Site #name: Head
							{
								OFFSET -0.019200 9.262405 2.362500
							}
						}
					}
					JOINT Spine2_LeftShoulder
					{
						OFFSET 0.000000 0.000000 0.000000
						CHANNELS 3 Zrotation Yrotation Xrotation
						JOINT LeftShoulder
						{
							OFFSET 5.616900 6.732201 -0.345700
							CHANNELS 3 Zrotation Yrotation Xrotation
							JOINT LeftArm
							{
								OFFSET 10.664888 -0.183372 -2.440700
								CHANNELS 3 Zrotation Yrotation Xrotation
								JOINT LeftForeArm
								{
									OFFSET 27.459126 0.000000 0.000000
									CHANNELS 3 Zrotation Yrotation Xrotation
									End Site #name: LeftHand
									{
										OFFSET 21.306858 0.000000 0.000000
									}
								}
							}
						}
					}
					JOINT Spine2_RightShoulder
					{
						OFFSET 0.000000 0.000000 0.000000
						CHANNELS 3 Zrotation Yrotation Xrotation
						JOINT RightShoulder
						{
							OFFSET -5.580300 6.737503 -0.344400
							CHANNELS 3 Zrotation Yrotation Xrotation
							JOINT RightArm
							{
								OFFSET -10.679335 -0.188484 -2.383900
								CHANNELS 3 Zrotation Yrotation Xrotation
								JOINT RightForeArm
								{
									OFFSET -27.503529 0.000000 0.000000
									CHANNELS 3 Zrotation Yrotation Xrotation
									End Site #name: RightHand
									{
										OFFSET -21.306808 0.000000 0.000000
									}
								}
							}
						}
					}
				}
			}
		}
	}
	JOINT Hips_LeftUpLeg
	{
		OFFSET 0.000000 0.000000 0.000000
		CHANNELS 3 Zrotation Yrotation Xrotation
		JOINT LeftUpLeg
		{
			OFFSET 6.857700 -6.739601 0.312100
			CHANNELS 3 Zrotation Yrotation Xrotation
			JOINT LeftLeg
			{
				OFFSET -0.367590 -34.731552 -4.572400
				CHANNELS 3 Zrotation Yrotation Xrotation
				End Site #name: LeftFoot
				{
					OFFSET 0.367590 -34.656704 -6.067400
				}
			}
		}
	}
	JOINT Hips_RightUpLeg
	{
		OFFSET 0.000000 0.000000 0.000000
		CHANNELS 3 Zrotation Yrotation Xrotation
		JOINT RightUpLeg
		{
			OFFSET -6.876100 -6.733299 0.301000
			CHANNELS 3 Zrotation Yrotation Xrotation
			JOINT RightLeg
			{
				OFFSET 0.347353 -34.795158 -4.515900
				CHANNELS 3 Zrotation Yrotation Xrotation
				End Site #name: RightFoot
				{
					OFFSET -0.347353 -34.589367 -6.070300
				}
			}
		}
	}
}
MOTION
Frames: 6
Frame Time: 0.041667
-1.898257 0.003858 -1.373062 -0.270190 3.536904 -4.752125 0.000000 -0.000000 0.000000 -0.669125 0.111430 1.251252 1.222617 -0.435842 2.555755 0.000000 0.000000 0.000000 0.605424 -0.745688 1.975752 0.240411 -0.806991 3.144611 0.972411 -0.664223 2.940685 -19.366442 5.064989 0.154858 -51.997578 6.258103 22.940899 -0.295866 -28.531011 0.695952 0.295272 -0.527262 2.254358 18.747514 11.421535 4.018473 42.951953 36.193052 -10.712842 179.622505 42.673771 179.788700 0.000000 -0.000000 -0.000000 1.093560 12.049509 -12.131540 4.965137 8.403815 19.287849 0.000000 -0.000000 0.000000 0.515470 -14.494167 -9.399467 3.529377 6.384745 18.533800 
-1.974795 0.001122 -1.413364 -0.217590 3.594168 -4.758581 0.000000 -0.000000 0.000000 -0.649908 0.111352 1.288130 1.275618 -0.441082 2.560670 0.000000 0.000000 0.000000 0.656995 -0.745421 1.996248 0.244138 -0.807527 3.163627 1.018667 -0.664144 2.956312 -19.397838 4.974594 0.175498 -52.048954 6.464559 22.393415 -0.289790 -28.408417 0.690175 0.358101 -0.541378 2.263430 18.776316 11.417743 4.011644 42.992409 36.263470 -10.654104 179.626792 42.687024 179.784813 0.000000 -0.000000 -0.000000 1.108691 12.044658 -12.132730 4.966888 8.395623 19.266796 0.000000 -0.000000 0.000000 0.540283 -14.494064 -9.412865 3.531561 6.372140 18.569473 
-2.041109 -0.001936 -1.453067 -0.168397 3.642321 -4.767563 0.000000 -0.000000 0.000000 -0.632924 0.112510 1.322538 1.325511 -0.445019 2.566807 0.000000 0.000000 0.000000 0.706050 -0.744484 2.016087 0.246813 -0.808127 3.182606 1.062704 -0.663383 2.973357 -19.430531 4.887108 0.194377 -52.093901 6.655990 21.870829 -0.284147 -28.300303 0.684764 0.419443 -0.554416 2.271661 18.800474 11.413182 4.004458 43.036043 36.330574 -10.593342 179.630461 42.717474 179.780963 0.000000 -0.000000 -0.000000 1.118106 12.039474 -12.126645 4.970398 8.396595 19.244103 0.000000 -0.000000 0.000000 0.561205 -14.493898 -9.428330 3.533234 6.359010 18.615961 
-2.096624 -0.005114 -1.492083 -0.121875 3.681786 -4.778031 0.000000 -0.000000 0.000000 -0.616896 0.115689 1.355052 1.371086 -0.447332 2.572304 0.000000 0.000000 0.000000 0.751852 -0.742241 2.035403 0.249659 -0.809186 3.196795 1.102600 -0.661113 2.989579 -19.459222 4.807859 0.209394 -52.154681 6.802770 21.375262 -0.280940 -28.195091 0.679749 0.474938 -0.565490 2.280188 18.820081 11.404817 3.997617 43.085542 36.404730 -10.520907 179.635572 42.753693 179.778253 0.000000 -0.000000 -0.000000 1.124112 12.035181 -12.121833 4.971329 8.396770 19.236803 0.000000 -0.000000 0.000000 0.574416 -14.496522 -9.441794 3.534199 6.346174 18.667822 
-2.140873 -0.008258 -1.530256 -0.078310 3.713613 -4.789983 0.000000 -0.000000 0.000000 -0.603670 0.117274 1.386868 1.411707 -0.448897 2.578468 0.000000 0.000000 0.000000 0.792256 -0.739039 2.056223 0.250821 -0.809405 3.208576 1.138911 -0.658805 3.004375 -19.484624 4.728790 0.224845 -52.208409 6.934305 20.869917 -0.276638 -28.110141 0.676420 0.524295 -0.573654 2.290259 18.841036 11.398710 3.992016 43.128924 36.472846 -10.458974 179.641963 42.792449 179.775719 0.000000 -0.000000 -0.000000 1.124051 12.028664 -12.112762 4.971946 8.402239 19.229622 0.000000 -0.000000 0.000000 0.579864 -14.500240 -9.455843 3.535545 6.334617 18.726341 
-2.173306 -0.011118 -1.567599 -0.037907 3.736977 -4.803280 0.000000 -0.000000 0.000000 -0.592496 0.120464 1.415427 1.447388 -0.450376 2.584289 0.000000 0.000000 0.000000 0.827241 -0.735467 2.075373 0.252408 -0.808848 3.216795 1.170458 -0.655928 3.018359 -19.507448 4.643708 0.239242 -52.263392 7.021314 20.379034 -0.274509 -27.994140 0.673275 0.568478 -0.577779 2.299150 18.858851 11.392757 3.986192 43.166992 36.533481 -10.406572 179.647597 42.833084 179.773671 0.000000 -0.000000 -0.000000 1.119448 12.021709 -12.099257 4.970581 8.408897 19.221893 0.000000 -0.000000 0.000000 0.578329 -14.504337 -9.461943 3.536147 6.323500 18.780669 
